<svg width="854" height="1360" fill="none" xmlns="http://www.w3.org/2000/svg"><g filter="url(#filter0_i)"><path d="M723.587 696.034c-36.718 111.675-152.606 196.397-248.342 251.31-95.582 54.796-171.408 79.586-260.137 159.866-89.003 80.25-191.062 216.1-258.002 205.1-67.062-11.15-98.732-169.12-155.937-282.75-57.358-113.503-140.13-182.517-129.928-246.076 10.232-63.833 113.164-122.241 167.813-219.264 54.77-96.871 61.379-232.204 116.098-266.874 54.719-34.67 157.548 31.323 285.735 49.625 128.156 18.576 281.822-10.661 379.668 44.08 97.845 54.741 139.902 193.186 103.032 304.983z" fill="#1B1F2B"/></g><defs><filter id="filter0_i" x="-550" y="-35" width="1403.67" height="1394.69" filterUnits="userSpaceOnUse" color-interpolation-filters="sRGB"><feFlood flood-opacity="0" result="BackgroundImageFix"/><feBlend in="SourceGraphic" in2="BackgroundImageFix" result="shape"/><feColorMatrix in="SourceAlpha" values="0 0 0 0 0 0 0 0 0 0 0 0 0 0 0 0 0 0 127 0" result="hardAlpha"/><feOffset dy="-35"/><feGaussianBlur stdDeviation="27.5"/><feComposite in2="hardAlpha" operator="arithmetic" k2="-1" k3="1"/><feColorMatrix values="0 0 0 0 0 0 0 0 0 0 0 0 0 0 0 0 0 0 0.1 0"/><feBlend in2="shape" result="effect1_innerShadow"/></filter></defs></svg>