<svg xmlns="http://www.w3.org/2000/svg" viewBox="0 0 505 505" width="512" height="512"><path d="M497.503 252.499c0 135.31-109.69 245-245 245-71.33 0-135.54-30.48-180.31-79.13a246.05 246.05 0 01-31.03-41.85c-21.39-36.38-33.66-78.77-33.66-124.02 0-135.31 109.69-245 245-245 45.26 0 87.65 12.27 124.02 33.67a244.914 244.914 0 0141.84 31.03c48.65 44.75 79.14 108.97 79.14 180.3z" fill="#f0cd00"/><path d="M497.503 252.499c0 132.26-104.79 240.04-235.88 244.83-131.09-4.79-235.88-112.57-235.88-244.83s104.79-240.04 235.88-244.83c131.09 4.79 235.88 112.57 235.88 244.83z" fill="#ffde50"/><path d="M418.363 72.199l-346.17 346.17a246.05 246.05 0 01-31.03-41.85l335.36-335.35a244.914 244.914 0 0141.84 31.03zm62.24 90.73l-317.68 317.68a244.67 244.67 0 01-62.03-35.64l344.08-344.08a244.227 244.227 0 0135.63 62.04z" fill="#ffea94"/><path d="M442.883 252.499c0 105.14-85.24 190.38-190.38 190.38-36.62 0-70.82-10.34-99.85-28.26a190.856 190.856 0 01-34.77-27.51 190.677 190.677 0 01-21.02-24.94 189.778 189.778 0 01-21.5-39.78c-8.28-20.95-12.94-43.73-13.22-67.55-.02-.78-.02-1.56-.02-2.34 0-105.14 85.23-190.38 190.38-190.38.78 0 1.57 0 2.35.02 23.82.28 46.59 4.95 67.54 13.22a190.24 190.24 0 0139.78 21.5c8.91 6.3 17.25 13.33 24.94 21.02a190.515 190.515 0 0127.51 34.77c17.92 29.03 28.26 63.23 28.26 99.85z" fill="#faa300"/><path d="M387.113 117.879l-269.23 269.23a190.677 190.677 0 01-21.02-24.94 189.778 189.778 0 01-21.5-39.78c-8.28-20.95-12.94-43.73-13.22-67.55-.02-.78-.02-1.56-.02-2.34 0-105.14 85.23-190.38 190.38-190.38.78 0 1.57 0 2.35.02 23.82.28 46.59 4.95 67.54 13.22a190.24 190.24 0 0139.78 21.5c8.91 6.3 17.25 13.33 24.94 21.02z" fill="#ffbd00"/><path d="M442.878 252.499c0 105.14-85.24 190.38-190.38 190.38-3.61 0-7.19-.1-10.75-.3 100.14-5.57 179.62-88.55 179.62-190.08s-79.48-184.51-179.62-190.08c3.56-.2 7.14-.3 10.75-.3 105.14 0 190.38 85.24 190.38 190.38z" fill="#f68e00"/><path d="M252.5 505c-67.445 0-130.854-26.265-178.544-73.956C26.265 383.354 0 319.945 0 252.5S26.265 121.646 73.956 73.956C121.646 26.265 185.055 0 252.5 0c23.189 0 46.165 3.144 68.288 9.345a7.5 7.5 0 015.197 9.246 7.5 7.5 0 01-9.246 5.198C295.935 17.957 274.32 15 252.5 15c-63.438 0-123.08 24.704-167.938 69.562C39.704 129.42 15 189.062 15 252.5s24.704 123.08 69.563 167.938C129.42 465.296 189.062 490 252.5 490s123.08-24.704 167.938-69.562C465.296 375.58 490 315.938 490 252.5c0-47.968-14.229-94.185-41.147-133.653-26.289-38.544-62.899-68.285-105.873-86.006a7.5 7.5 0 015.719-13.867c45.687 18.84 84.604 50.453 112.546 91.421C489.869 152.364 505 201.504 505 252.5c0 67.445-26.265 130.854-73.956 178.544C383.354 478.735 319.945 505 252.5 505z"/><path d="M252.5 450.378c-109.11 0-197.879-88.768-197.879-197.878S143.39 54.622 252.5 54.622 450.378 143.39 450.378 252.5 361.61 450.378 252.5 450.378zm0-380.756c-100.84 0-182.879 82.039-182.879 182.878S151.66 435.378 252.5 435.378c100.839 0 182.878-82.039 182.878-182.878S353.339 69.622 252.5 69.622z"/><path d="M339.022 300.566c0-25.391-13.123-47.761-32.932-60.726 8.14-11.217 12.958-24.994 12.958-39.882 0-25.711-14.332-48.133-35.424-59.71v-24.653c0-11.046-8.954-20-20-20s-20 8.954-20 20v16.296h-24.138v-16.296c0-11.046-8.954-20-20-20s-20 8.954-20 20v16.296h-23.504c-11.046 0-20 8.954-20 20s8.954 20 20 20h6.902v161.216h-6.902c-11.046 0-20 8.954-20 20s8.954 20 20 20h23.504v16.296c0 11.046 8.954 20 20 20s20-8.954 20-20v-16.296h24.138v16.296c0 11.046 8.954 20 20 20s20-8.954 20-20v-18.36c31.75-7.725 55.398-36.383 55.398-70.477zM202.885 171.891h48.096c15.477 0 28.067 12.591 28.067 28.067s-12.591 28.067-28.067 28.067h-48.096v-56.134zm63.596 161.216h-63.597v-65.081h63.597c17.942 0 32.54 14.598 32.54 32.541s-14.597 32.54-32.54 32.54z" fill="#f68e00"/><path d="M364.023 300.566c0-25.391-13.123-47.761-32.932-60.726 8.14-11.217 12.958-24.994 12.958-39.882 0-25.711-14.332-48.133-35.424-59.71v-24.653c0-11.046-8.954-20-20-20s-20 8.954-20 20v16.296h-24.138v-16.296c0-11.046-8.954-20-20-20s-20 8.954-20 20v16.296h-23.504c-11.046 0-20 8.954-20 20s8.954 20 20 20h6.902v161.216h-6.902c-11.046 0-20 8.954-20 20s8.954 20 20 20h23.504v16.296c0 11.046 8.954 20 20 20s20-8.954 20-20v-16.296h24.138v16.296c0 11.046 8.954 20 20 20s20-8.954 20-20v-18.36c31.751-7.725 55.398-36.383 55.398-70.477zM227.886 171.891h48.096c15.477 0 28.067 12.591 28.067 28.067s-12.591 28.067-28.067 28.067h-48.096v-56.134zm63.597 161.216h-63.597v-65.081h63.597c17.942 0 32.54 14.598 32.54 32.541s-14.598 32.54-32.54 32.54z" fill="#ffea94"/><path d="M288.626 416.903c-15.163 0-27.5-12.336-27.5-27.5v-8.796h-9.138v8.796c0 15.164-12.337 27.5-27.5 27.5s-27.5-12.336-27.5-27.5v-8.796h-16.004c-15.163 0-27.5-12.336-27.5-27.5 0-14.964 12.014-27.174 26.902-27.494v-7.937c0-4.142 3.357-7.5 7.5-7.5s7.5 3.358 7.5 7.5v15.43a7.5 7.5 0 01-7.5 7.5h-6.902c-6.893 0-12.5 5.607-12.5 12.5s5.607 12.5 12.5 12.5h23.504a7.5 7.5 0 017.5 7.5v16.296c0 6.893 5.607 12.5 12.5 12.5s12.5-5.607 12.5-12.5v-16.296a7.5 7.5 0 017.5-7.5h24.138a7.5 7.5 0 017.5 7.5v16.296c0 6.893 5.607 12.5 12.5 12.5s12.5-5.607 12.5-12.5v-18.36a7.501 7.501 0 015.727-7.288c29.246-7.115 49.671-33.099 49.671-63.188 0-21.989-11.043-42.345-29.539-54.451a7.506 7.506 0 01-3.27-4.92 7.502 7.502 0 011.307-5.76c7.542-10.393 11.528-22.661 11.528-35.477 0-22.099-12.083-42.459-31.532-53.135a7.5 7.5 0 01-3.892-6.575v-24.653c0-6.893-5.607-12.5-12.5-12.5s-12.5 5.607-12.5 12.5v16.296a7.5 7.5 0 01-7.5 7.5h-24.138a7.5 7.5 0 01-7.5-7.5v-16.296c0-6.893-5.607-12.5-12.5-12.5s-12.5 5.607-12.5 12.5v16.296a7.5 7.5 0 01-7.5 7.5h-23.504c-6.893 0-12.5 5.607-12.5 12.5s5.607 12.5 12.5 12.5h6.902a7.5 7.5 0 017.5 7.5v115.784c0 4.142-3.357 7.5-7.5 7.5s-7.5-3.358-7.5-7.5v-108.29c-14.889-.319-26.902-12.53-26.902-27.494 0-15.164 12.337-27.5 27.5-27.5h16.004v-8.796c0-15.164 12.337-27.5 27.5-27.5s27.5 12.336 27.5 27.5v8.796h9.138v-8.796c0-15.164 12.337-27.5 27.5-27.5 15.164 0 27.5 12.336 27.5 27.5v20.367c21.96 13.804 35.424 37.928 35.424 63.997 0 13.483-3.532 26.478-10.275 37.994 19.067 15.152 30.249 38.051 30.249 62.614 0 35.032-22.497 65.542-55.397 76.146v12.69c-.001 15.163-12.337 27.5-27.501 27.5zm2.857-76.296h-63.597a7.5 7.5 0 01-7.5-7.5v-65.081a7.5 7.5 0 017.5-7.5h63.597c22.078 0 40.04 17.962 40.04 40.041s-17.961 40.04-40.04 40.04zm-56.096-15h56.097c13.807 0 25.04-11.233 25.04-25.041s-11.233-25.041-25.04-25.041h-56.097v50.082zm40.595-90.081h-48.096a7.5 7.5 0 01-7.5-7.5v-56.135a7.5 7.5 0 017.5-7.5h48.096c19.612 0 35.567 15.956 35.567 35.567s-15.954 35.568-35.567 35.568zm-40.595-15h40.596c11.341 0 20.567-9.227 20.567-20.567s-9.227-20.567-20.567-20.567h-40.596v41.134z"/></svg>