<?xml version="1.0" encoding="utf-8"?><svg viewBox="0 0 1440 234" xmlns="http://www.w3.org/2000/svg" xmlns:xlink="http://www.w3.org/1999/xlink"><style>:root>svg{display:none}:root>svg:target{display:block}</style><svg fill="none" viewBox="0 0 10 6" id="arrow" xmlns="http://www.w3.org/2000/svg"><path d="M1 1l3.965 4L9 1" stroke="#FDC168"/></svg><svg fill="none" viewBox="0 0 10 8" id="checkbox" xmlns="http://www.w3.org/2000/svg"><path d="M3.49 7.935L.062 4.294A.227.227 0 010 4.134a.24.24 0 01.062-.16l.866-.925a.202.202 0 01.299 0l2.257 2.395a.203.203 0 00.3-.001L8.77.067a.203.203 0 01.301 0l.867.924a.237.237 0 010 .32L4.507 7.163l-.716.77a.204.204 0 01-.3 0z" fill="#FDC168"/></svg><svg fill="none" viewBox="0 0 43 43" id="deposit-add" xmlns="http://www.w3.org/2000/svg"><path d="M17.727 4.572v13.155H4.573c-5.074 0-5.072 7.866 0 7.869 4.384-.003 8.772-.002 13.155 0V38.75c.001 5.07 7.866 5.07 7.868 0V25.595H38.75c5.072 0 5.072-7.867 0-7.868l-13.157.001V4.57c0-5.071-7.866-5.071-7.865.004" fill="#A4A4A4" fill-opacity=".45"/></svg><svg fill="none" viewBox="0 0 12 12" id="faq" xmlns="http://www.w3.org/2000/svg"><path d="M11 11L1 1m10 0L1 11" stroke="#1C202A" stroke-width="1.5" stroke-linecap="round"/></svg><svg fill="none" viewBox="0 0 1440 234" id="line" xmlns="http://www.w3.org/2000/svg"><path d="M0 223.146c12.507 8.587 39.752 19.446 48.676-5.817 11.155-31.578-8.113-11.634 17.24-49.03 25.352-37.396 40.563-63.157 64.901-43.213 24.338 19.945 82.141 111.357 122.704 51.523 40.563-59.833 58.817-152.906 110.535-135.455 51.719 17.451 106.479 60.664 115.606 93.905 9.127 33.24 10.141 103.046 39.549 72.298 29.409-30.748 27.381-73.129 54.761-59.002 27.38 14.127 83.155 44.044 97.352 19.944 14.197-24.099 89.239-147.92 118.648-150.414C819.38 15.392 821.408-3.72 858.93 2.096c37.521 5.817 120.676 152.907 162.25 146.259 41.58-6.648 92.28 0 100.4-16.62 8.11-16.621 90.25-99.722 119.66-64.82 29.41 34.903 56.79 142.104 99.38 137.949 42.59-4.155 60.84-10.803 63.89-36.565 3.04-25.761 18.25-100.553 35.49-106.37" stroke="#FDC168" stroke-opacity=".25" stroke-width=".75"/></svg><svg fill="none" viewBox="0 0 10 8" id="statistic" xmlns="http://www.w3.org/2000/svg"><path d="M3.49 7.935L.062 4.294A.227.227 0 010 4.134a.24.24 0 01.062-.16l.866-.925a.202.202 0 01.299 0l2.257 2.395a.203.203 0 00.3-.001L8.77.067a.203.203 0 01.301 0l.867.924a.237.237 0 010 .32L4.507 7.163l-.716.77a.204.204 0 01-.3 0z" fill="#47C147"/></svg></svg>