<svg width="854" height="1360" viewBox="0 0 854 1360" fill="none" xmlns="http://www.w3.org/2000/svg">
<g filter="url(#filter0_i)">
<path d="M723.587 696.034C686.869 807.709 570.981 892.431 475.245 947.344C379.663 1002.14 303.837 1026.93 215.108 1107.21C126.105 1187.46 24.0462 1323.31 -42.8942 1312.31C-109.956 1301.16 -141.626 1143.19 -198.831 1029.56C-256.189 916.057 -338.961 847.043 -328.759 783.484C-318.527 719.651 -215.595 661.243 -160.946 564.22C-106.176 467.349 -99.5671 332.016 -44.8482 297.346C9.87074 262.676 112.7 328.669 240.887 346.971C369.043 365.547 522.709 336.31 620.555 391.051C718.4 445.792 760.457 584.237 723.587 696.034Z" fill="#1B1F2B"/>
</g>
<defs>
<filter id="filter0_i" x="-550" y="-35" width="1403.67" height="1394.69" filterUnits="userSpaceOnUse" color-interpolation-filters="sRGB">
<feFlood flood-opacity="0" result="BackgroundImageFix"/>
<feBlend mode="normal" in="SourceGraphic" in2="BackgroundImageFix" result="shape"/>
<feColorMatrix in="SourceAlpha" type="matrix" values="0 0 0 0 0 0 0 0 0 0 0 0 0 0 0 0 0 0 127 0" result="hardAlpha"/>
<feOffset dy="-35"/>
<feGaussianBlur stdDeviation="27.5"/>
<feComposite in2="hardAlpha" operator="arithmetic" k2="-1" k3="1"/>
<feColorMatrix type="matrix" values="0 0 0 0 0 0 0 0 0 0 0 0 0 0 0 0 0 0 0.1 0"/>
<feBlend mode="normal" in2="shape" result="effect1_innerShadow"/>
</filter>
</defs>
</svg>
