<svg width="1440" height="234" fill="none" xmlns="http://www.w3.org/2000/svg"><path d="M0 223.146c12.507 8.587 39.752 19.446 48.676-5.817 11.155-31.578-8.113-11.634 17.24-49.03 25.352-37.396 40.563-63.157 64.901-43.213 24.338 19.945 82.141 111.357 122.704 51.523 40.563-59.833 58.817-152.906 110.535-135.455 51.719 17.451 106.479 60.664 115.606 93.905 9.127 33.24 10.141 103.046 39.549 72.298 29.409-30.748 27.381-73.129 54.761-59.002 27.38 14.127 83.155 44.044 97.352 19.944 14.197-24.099 89.239-147.92 118.648-150.414C819.38 15.392 821.408-3.72 858.93 2.096c37.521 5.817 120.676 152.907 162.25 146.259 41.58-6.648 92.28 0 100.4-16.62 8.11-16.621 90.25-99.722 119.66-64.82 29.41 34.903 56.79 142.104 99.38 137.949 42.59-4.155 60.84-10.803 63.89-36.565 3.04-25.761 18.25-100.553 35.49-106.37" stroke="#FDC168" stroke-opacity=".25" stroke-width=".75"/></svg>