<svg width="43" height="43" viewBox="0 0 43 43" fill="none" xmlns="http://www.w3.org/2000/svg">
<path d="M17.7273 4.57187L17.7277 17.7272C13.3436 17.7279 8.95674 17.7272 4.57164 17.7276C-0.501577 17.7276 -0.500162 25.5928 4.57163 25.5956C8.95568 25.5935 13.3436 25.5939 17.7266 25.5956C17.7284 29.9806 17.7284 34.3656 17.7266 38.7506C17.728 43.821 25.5926 43.821 25.5947 38.7506C25.594 34.3651 25.5936 29.9786 25.5943 25.5946L38.75 25.5953C43.8225 25.5946 43.8218 17.7279 38.75 17.7272C34.3638 17.7272 29.9791 17.7272 25.5926 17.7283C25.5929 13.3417 25.5922 8.95627 25.5929 4.5701C25.5936 -0.500987 17.7273 -0.50134 17.7284 4.57364" fill="#A4A4A4" fill-opacity="0.45"/>
</svg>
