<svg width="1440" height="234" viewBox="0 0 1440 234" fill="none" xmlns="http://www.w3.org/2000/svg">
    <path d="M0 223.146C12.507 231.733 39.7521 242.592 48.6761 217.329C59.831 185.751 40.5634 205.695 65.9155 168.299C91.2676 130.903 106.479 105.142 130.817 125.086C155.155 145.031 212.958 236.443 253.521 176.609C294.084 116.776 312.338 23.7025 364.056 41.1538C415.775 58.6051 470.535 101.818 479.662 135.059C488.789 168.299 489.803 238.105 519.211 207.357C548.62 176.609 546.592 134.228 573.972 148.355C601.352 162.482 657.127 192.399 671.324 168.299C685.521 144.2 760.563 20.3784 789.972 17.8853C819.38 15.3923 821.408 -3.72107 858.93 2.09604C896.451 7.91315 979.606 155.003 1021.18 148.355C1062.76 141.707 1113.46 148.355 1121.58 131.735C1129.69 115.114 1211.83 32.0126 1241.24 66.9153C1270.65 101.818 1298.03 209.019 1340.62 204.864C1383.21 200.709 1401.46 194.061 1404.51 168.299C1407.55 142.538 1422.76 67.7463 1440 61.9292"
          stroke="#FDC168" stroke-opacity="0.25" stroke-width="0.75"/>
</svg>
