<svg width="10" height="8" viewBox="0 0 10 8" fill="none" xmlns="http://www.w3.org/2000/svg">
<path d="M3.49043 7.93468L0.062382 4.29402C0.0426118 4.27303 0.0269229 4.24807 0.0162171 4.22059C0.00551132 4.1931 0 4.16362 0 4.13386C0 4.10409 0.00551132 4.07461 0.0162171 4.04712C0.0269229 4.01964 0.0426118 3.99468 0.062382 3.97369L0.927808 3.04864C1.0105 2.96034 1.14416 2.96034 1.22686 3.04864L3.4837 5.44392C3.5664 5.53221 3.70102 5.53119 3.78371 5.44289L8.77049 0.0671207C8.85319 -0.0222017 8.98781 -0.0222017 9.07147 0.066094L9.93786 0.991145C10.0206 1.07944 10.0206 1.22215 9.93882 1.31045L4.50587 7.16363L4.50683 7.16466L3.79045 7.93365C3.70775 8.02194 3.57313 8.02194 3.49043 7.93468Z" fill="#47C147"/>
</svg>
